<?xml version="1.0" encoding="utf-8"?>
<!-- Generator: Adobe Illustrator 17.1.0, SVG Export Plug-In . SVG Version: 6.00 Build 0)  -->
<!DOCTYPE svg PUBLIC "-//W3C//DTD SVG 1.1//EN" "http://www.w3.org/Graphics/SVG/1.1/DTD/svg11.dtd">
<svg version="1.1" id="Capa_1" xmlns="http://www.w3.org/2000/svg" xmlns:xlink="http://www.w3.org/1999/xlink" x="0px" y="0px"
	 viewBox="173.8 0 494.2 595.3" enable-background="new 173.8 0 494.2 595.3" xml:space="preserve">
<g>
	<path fill="#666666" d="M641.6,393.1l-12.3-106.2c-0.7-90.2-60.2-169.7-144.7-196.9V63.6C484.5,28.5,456,0,421,0
		s-63.6,28.5-63.6,63.6v26.5c-84.5,27.1-144.1,106.6-144.7,196.9l-12.3,106.2c-16.6,13.1-26.5,32.9-26.5,54.7v4.2
		c0,51.9,50.8,51.9,69.9,51.9h70.2c8.1,51.8,51.1,91.4,102.9,91.4s94.8-39.7,102.9-91.4h78.5c19.1,0,69.9,0,69.9-51.9v-4.2
		C668.1,426.1,658.2,406.2,641.6,393.1z M416.8,543.1c-20.2,0-37.7-12.5-46.4-30.9h92.8C454.5,530.5,436.9,543.1,416.8,543.1z
		 M615.9,450.7c-3.5,0.6-9.4,0.9-17.7,0.9H243.7c-8.2,0-14.1-0.3-17.7-0.9v-2.9c0-8.1,5.2-13.5,10.1-15.8l13-6.2l15.5-134.2l0.2-3
		c0-73.5,52.1-137.8,124-152.8l20.8-4.3V63.6c0-6.3,5.1-11.4,11.4-11.4c6.3,0,11.4,5.1,11.4,11.4v67.8l20.8,4.3
		c71.8,15,124,79.3,124,152.8l15.7,137.2l12.9,6.2c4.9,2.4,10.1,7.8,10.1,15.8L615.9,450.7L615.9,450.7z"/>
</g>
</svg>
