<?xml version="1.0" encoding="utf-8"?>
<!-- Generator: Adobe Illustrator 17.1.0, SVG Export Plug-In . SVG Version: 6.00 Build 0)  -->
<!DOCTYPE svg PUBLIC "-//W3C//DTD SVG 1.1//EN" "http://www.w3.org/Graphics/SVG/1.1/DTD/svg11.dtd">
<svg version="1.1" id="Layer_1" xmlns="http://www.w3.org/2000/svg" xmlns:xlink="http://www.w3.org/1999/xlink" x="0px" y="0px"
	 viewBox="0 0 302 302" enable-background="new 0 0 302 302" xml:space="preserve">
<g>
	<path fill="#A1A1A1" stroke="#A1A1A1" stroke-width="10" stroke-miterlimit="10" d="M290.6,273.3L222,204.7
		c17-20.7,27.2-47.3,27.2-76.2C249.2,62.2,195.4,8.4,129,8.4C62.6,8.4,8.8,62.2,8.8,128.5s53.8,120.2,120.2,120.2
		c28.9,0,55.4-10.2,76.1-27.2l68.6,68.5c4.7,4.7,12.2,4.7,16.8,0C295.2,285.5,295.2,277.9,290.6,273.3z M129.1,224.9
		c-53.2,0-96.3-43.2-96.3-96.3s43.2-96.4,96.3-96.4c53.1,0,96.3,43.3,96.3,96.3S182.1,224.9,129.1,224.9z"/>
</g>
</svg>
