<?xml version="1.0" encoding="utf-8"?>
<!-- Generator: Adobe Illustrator 17.1.0, SVG Export Plug-In . SVG Version: 6.00 Build 0)  -->
<!DOCTYPE svg PUBLIC "-//W3C//DTD SVG 1.1//EN" "http://www.w3.org/Graphics/SVG/1.1/DTD/svg11.dtd">
<svg version="1.1" id="Layer_1" xmlns="http://www.w3.org/2000/svg" xmlns:xlink="http://www.w3.org/1999/xlink" x="0px" y="0px"
	 viewBox="0 0 300 300" enable-background="new 0 0 300 300" xml:space="preserve">
<g>
	<path fill="#666666" stroke="#666666" stroke-width="10" stroke-miterlimit="10" d="M288.7,271.5l-68.1-68.1
		c16.9-20.6,27-47,27-75.7c0-65.9-53.4-119.3-119.4-119.3S8.7,61.8,8.7,127.6s53.4,119.4,119.4,119.4c28.7,0,55-10.1,75.6-27
		l68.1,68c4.7,4.7,12.1,4.7,16.7,0C293.2,283.6,293.2,276.1,288.7,271.5z M128.2,223.4c-52.8,0-95.7-42.9-95.7-95.7
		S75.5,32,128.2,32s95.7,43,95.7,95.7S180.9,223.4,128.2,223.4z"/>
</g>
</svg>
